<?xml version="1.0" encoding="UTF-8"?>
<svg id="Layer_2" data-name="Layer 2" xmlns="http://www.w3.org/2000/svg" viewBox="0 0 229.55 68.98">
  <defs>
    <style>
      .cls-1 {
        font-family: GillSans-Light, 'Gill Sans';
      }

      .cls-2, .cls-3, .cls-4 {
        font-family: GillSans, 'Gill Sans';
      }

      .cls-5 {
        fill: #0b5586;
      }

      .cls-6 {
        fill: #231f20;
        font-size: 21.8px;
      }

      .cls-3 {
        letter-spacing: -.02em;
      }

      .cls-7 {
        fill: #39bfe8;
      }

      .cls-7, .cls-8 {
        fill-rule: evenodd;
      }

      .cls-8 {
        fill: #2691d0;
      }

      .cls-4 {
        letter-spacing: -.02em;
      }
    </style>
  </defs>
  <g id="Layer_1-2" data-name="Layer 1">
    <g>
      <g>
        <path class="cls-5" d="M226.92,34.42c-2.88-.88-70.74-21.27-100.62,9.58-.33,.34-.59,.74-.77,1.17-2.99,7.27-4.57,9.1-10.76,9.1s-7.76-1.83-10.76-9.1c-.18-.44-.44-.83-.77-1.17C73.37,13.15,5.51,33.54,2.63,34.42c-1.97,.6-3.07,2.69-2.47,4.65,.6,1.96,2.68,3.07,4.65,2.47,.66-.2,65.59-19.7,92.59,7.15,3.12,7.44,6.57,13.03,17.36,13.03s14.24-5.6,17.36-13.03c27.01-26.85,91.94-7.35,92.59-7.15,1.97,.6,4.05-.5,4.65-2.47,.6-1.97-.5-4.05-2.47-4.65"/>
        <path class="cls-8" d="M111.7,44.36C100.01,27,61.89,8.17,2.75,27c8.81-11.88,5.93-9,5.93-9,0,0,78.03-22.94,103.02,26.37"/>
        <path class="cls-7" d="M114.77,34.65C109.6,21.21,76.4-1.44,25.34,9.7,31.48,1.63,32.25,.87,32.25,.87c0,0,65.46-9.41,82.53,33.78"/>
        <path class="cls-8" d="M117.85,44.36c11.7-17.36,49.81-36.2,108.95-17.36-8.81-11.88-5.93-9-5.93-9,0,0-78.03-22.94-103.02,26.37"/>
        <path class="cls-7" d="M114.78,34.65c5.17-13.44,38.38-36.09,89.44-24.95-6.14-8.06-6.91-8.83-6.91-8.83,0,0-65.46-9.41-82.53,33.78"/>
      </g>
      <text class="cls-6" transform="translate(136.85 60.97)"><tspan class="cls-4" x="0" y="0">w</tspan><tspan class="cls-2" x="15.24" y="0">o</tspan><tspan class="cls-3" x="27.27" y="0">r</tspan><tspan class="cls-2" x="35.57" y="0">d</tspan><tspan class="cls-1" x="46.68" y="0">wise</tspan></text>
    </g>
  </g>
</svg>